# xmcd
#
# Track frame offsets:
#	150
#	14667
#	29798
#	47331
#	63274
#	81682
#	99686
#	116385
#	133611
#	150673
#	167498
#	184341
#	200467
#	214691
#	232764
#	251230
#	269417
#	290846
#	306583
#	334116
#
# Disc length: 4795 seconds
#
# Revision: 3
# Processed by: cddbd v1.5.2PL0 Copyright (c) Steve Scherf et al.
# Submitted via: audiograbber 1.83.01
#
DISCID=2f12b914
DTITLE=Various Artist - Future Trance Vol. 21
DYEAR=2002
DGENRE=Hands Up
TTITLE0=Drunkenmunky - E (As In Eveline)
TTITLE1=Ian Van Dahl - Reason
TTITLE2=Noèmi - Y.O.U.
TTITLE3=Axel Coon - Close To You
TTITLE4=Rocco - Drop The Bass (Aquagen Remix)
TTITLE5=Mauro Picotto - Back To Cali (Megamind Remix)
TTITLE6=Aquagen - The Summer Is Calling
TTITLE7=Solid Solution - Da Solid Style (Jumping To The Beat)
TTITLE8=Mark 'Oh - Let This Party Never End
TTITLE9=DJ Frankie Jones - Scratchin'
TTITLE10=Jordan and Baker - Explode
TTITLE11=Erik Vee - Wildside
TTITLE12=DJ C7 - Fly Away
TTITLE13=Brooklyn Bounce - Loude and Proud
TTITLE14=Stimulator - Believe
TTITLE15=Chemistry - We Are One!
TTITLE16=4 Strings - Diving
TTITLE17=Matrix - The Matrix
TTITLE18=Blank and Jones - Watching The Waves
TTITLE19=Copy Protection - Copy Protection
EXTD=
EXTT0=
EXTT1=
EXTT2=
EXTT3=
EXTT4=
EXTT5=
EXTT6=
EXTT7=
EXTT8=
EXTT9=
EXTT10=
EXTT11=
EXTT12=
EXTT13=
EXTT14=
EXTT15=
EXTT16=
EXTT17=
EXTT18=
EXTT19=
PLAYORDER=
